<svg xmlns="http://www.w3.org/2000/svg" viewBox="0 0 350 350" style="enable-background:new 0 0 350 350" xml:space="preserve"><switch><g><g><path style="opacity:.4" d="M45 45h260v260H45z"/><path d="M73 73h204v204H73z"/><path style="fill:#fff" d="M175.5 62.5c-61.856 0-112 50.144-112 112s50.144 112 112 112 112-50.144 112-112-50.144-112-112-112zm0 171.5c-32.861 0-59.5-26.639-59.5-59.5 0-32.861 26.639-59.5 59.5-59.5 32.861 0 59.5 26.639 59.5 59.5 0 32.861-26.639 59.5-59.5 59.5z"/><path style="fill:#708090" d="M175.5 72.5c-56.333 0-102 45.667-102 102s45.667 102 102 102 102-45.667 102-102-45.667-102-102-102zm0 171.5c-38.384 0-69.5-31.116-69.5-69.5s31.116-69.5 69.5-69.5 69.5 31.116 69.5 69.5-31.116 69.5-69.5 69.5z"/><g><path style="fill:#fff" d="M45.211 148.01h260v52.5h-260z"/><path style="fill:#fff" d="M50.711 153.26h249v42h-249z"/><path d="M50.711 174.26h20.75v21h-20.75zM71.461 153.26h20.75v21h-20.75zM92.211 174.26h20.75v21h-20.75zM112.961 153.26h20.75v21h-20.75zM133.711 174.26h20.75v21h-20.75zM154.461 153.26h20.75v21h-20.75zM175.211 174.26h20.75v21h-20.75zM195.961 153.26h20.75v21h-20.75zM216.711 174.26h20.75v21h-20.75zM237.461 153.26h20.75v21h-20.75zM258.211 174.26h20.75v21h-20.75zM278.961 153.26h20.75v21h-20.75z"/></g></g></g></switch></svg>