<?xml version="1.0" standalone="no"?>
<!DOCTYPE svg PUBLIC "-//W3C//DTD SVG 20010904//EN"
 "http://www.w3.org/TR/2001/REC-SVG-20010904/DTD/svg10.dtd">
<svg version="1.0" xmlns="http://www.w3.org/2000/svg"
 width="104.000000pt" height="104.000000pt" viewBox="0 0 104.000000 104.000000"
 preserveAspectRatio="xMidYMid meet">

<g transform="translate(0.000000,104.000000) scale(0.100000,-0.100000)"
fill="#000000" stroke="none">
<path d="M450 998 c-26 -101 -64 -158 -107 -158 -28 0 -28 -1 -2 -51 l20 -41
-98 74 c-107 82 -153 113 -153 105 0 -2 38 -55 85 -116 47 -62 85 -114 85
-117 0 -2 -16 3 -36 11 -44 18 -44 18 -44 1 0 -8 12 -24 26 -35 22 -17 24 -24
15 -35 -7 -8 -19 -12 -27 -9 -8 3 -14 -1 -14 -10 0 -9 -14 -17 -37 -22 -21 -4
-46 -11 -57 -17 -17 -9 -17 -12 13 -30 19 -12 42 -18 56 -16 17 4 25 1 25 -8
0 -11 -18 -14 -70 -14 -71 0 -141 -23 -124 -40 5 -5 38 -16 74 -25 74 -19 131
-63 123 -96 -6 -23 11 -24 47 -4 14 8 28 14 32 15 4 0 -29 -48 -75 -107 -46
-60 -87 -114 -92 -122 -16 -26 19 -5 128 78 58 45 108 81 110 81 3 0 -3 -17
-13 -37 -17 -35 -17 -38 -2 -42 9 -2 26 9 37 23 19 24 23 25 34 12 7 -8 10
-19 7 -25 -3 -5 0 -11 8 -14 8 -3 17 -21 21 -39 4 -18 12 -42 17 -52 10 -18
11 -18 29 5 10 13 19 39 19 57 0 17 5 32 10 32 6 0 10 -30 10 -70 0 -68 19
-130 39 -130 5 0 15 24 21 52 7 29 17 62 23 73 16 34 60 75 79 75 22 0 23 12
3 50 -9 17 -13 30 -10 30 2 0 42 -28 87 -63 159 -121 162 -124 151 -102 -6 11
-47 67 -92 125 -44 57 -78 106 -76 108 2 2 17 -4 34 -12 16 -9 35 -16 41 -16
21 0 9 29 -20 46 -22 14 -27 21 -18 31 6 7 19 13 30 13 10 0 17 4 13 10 -3 5
19 16 50 25 30 9 55 20 55 24 0 12 -41 30 -75 33 -57 6 -30 23 40 25 70 3 125
18 125 35 0 5 -6 10 -12 12 -7 3 -40 12 -73 22 -74 21 -117 57 -109 91 7 28 4
28 -46 4 -22 -11 -40 -17 -40 -14 0 2 36 52 81 110 82 108 104 144 79 128 -8
-5 -60 -44 -116 -87 -56 -43 -105 -78 -108 -78 -4 0 0 13 9 30 8 16 15 34 15
40 0 19 -30 10 -46 -15 -9 -14 -20 -25 -25 -25 -5 0 -11 11 -15 25 -3 14 -10
25 -14 25 -5 0 -16 25 -25 55 -8 30 -18 55 -22 55 -15 0 -32 -38 -33 -72 0
-67 -17 -40 -25 39 -7 76 -21 123 -36 123 -5 0 -13 -19 -19 -42z m40 -84 c0
-79 -23 -114 -61 -94 -34 18 -34 18 -12 43 11 12 26 45 33 72 7 28 15 54 18
59 10 19 22 -23 22 -80z m85 -53 c3 -22 17 -49 31 -62 28 -26 33 -89 9 -109
-20 -16 -19 -46 1 -54 30 -11 91 -6 104 9 8 9 30 15 58 15 l46 0 -49 -49 c-28
-29 -59 -51 -74 -53 -36 -4 -39 -38 -6 -77 31 -36 41 -38 71 -10 18 16 32 20
80 17 l59 -3 -47 -14 c-25 -7 -57 -24 -69 -37 -33 -35 -75 -32 -119 10 l-35
35 -57 -35 -58 -36 -55 32 c-30 17 -53 36 -50 40 3 5 28 -4 54 -21 l49 -29 61
36 c61 36 61 37 61 83 0 46 -1 47 -56 79 -31 18 -60 32 -66 32 -6 0 -35 -14
-65 -31 -56 -32 -78 -33 -50 -1 23 25 21 65 -3 87 -14 13 -20 31 -20 62 0 23
3 43 6 43 15 0 93 -98 94 -117 0 -34 57 -27 92 12 l27 30 -25 26 c-20 21 -24
35 -24 83 0 63 15 68 25 7z m-214 -257 l37 -36 61 36 60 37 50 -32 c66 -40 66
-59 1 -23 -55 30 -60 29 -139 -21 -38 -23 -41 -29 -41 -68 0 -41 2 -43 63 -79
l62 -36 62 34 c37 21 64 30 68 24 3 -6 -1 -13 -9 -16 -22 -8 -21 -72 1 -96 10
-11 17 -37 18 -63 l1 -45 -53 52 c-32 32 -53 61 -53 75 0 32 -47 26 -81 -12
l-27 -30 24 -28 c18 -22 24 -40 24 -77 0 -66 -15 -71 -30 -11 -6 27 -20 57
-31 67 -23 20 -26 86 -5 103 17 14 15 39 -5 52 -22 14 -85 10 -99 -6 -8 -9
-30 -15 -58 -15 l-46 0 49 50 c31 31 58 50 72 50 35 0 31 48 -7 85 l-30 29
-23 -22 c-19 -18 -34 -22 -88 -21 l-64 1 52 16 c29 10 63 27 75 40 33 32 66
28 109 -14z m573 -14 c31 -7 56 -17 56 -22 0 -4 -35 -8 -79 -8 -91 0 -112 13
-92 56 11 25 11 25 35 6 13 -10 49 -24 80 -32z m-457 -44 c-14 -21 -14 -26 -1
-45 19 -26 8 -27 -29 -2 -34 22 -33 30 2 53 37 23 46 22 28 -6z m109 3 c19
-11 34 -24 34 -27 0 -4 -19 -17 -41 -29 l-41 -22 16 24 c20 31 21 49 1 41 -10
-4 -15 1 -15 14 0 25 5 25 46 -1z m-375 -75 c14 -13 15 -21 7 -45 l-10 -29
-27 23 c-15 13 -53 29 -84 37 -31 7 -54 17 -51 22 10 15 146 9 165 -8z m410
-255 c19 -10 19 -11 -4 -38 -13 -15 -29 -53 -37 -85 -17 -72 -30 -56 -30 40 0
89 19 111 71 83z"/>
</g>
</svg>
